# xmcd
#
# Track frame offsets:
# 150
# 14620
# 44471
#
# Disc length: 921 seconds
#
# Revision: 1
# Processed by: cddbd v1.5.2PL0 Copyright (c) Steve Scherf et al.
# Submitted via: CedeCatalogueitor 2.6.0.6 http://personales.ya.com/cdcatalogueitor
#
DISCID=20039703
DTITLE=Armand Van Helden - I Want Your Soul
DYEAR=1900
DGENRE=
TTITLE0=I Want Your Soul
TTITLE1=I Want Your Soul (album Version)
TTITLE2=I Want Your Soul (Fake Blood Rmx)
EXTD=
EXTT0=
EXTT1=
EXTT2=
PLAYORDER=
